<svg xmlns="http://www.w3.org/2000/svg" viewBox="0 0 170 170">
  <style>
    .red-fill { fill: #e53935; }
    .white-fill { fill: #ffffff; }
    .aspit-dot {
      transform-box: fill-box;
      transform-origin: center;
      animation: dot 3.2s infinite ease-in-out;
    }

    @keyframes dot {
      0% {
        transform: translateY(0%);
      }

      12.5% {
        transform: translateY(-44%);
      }

      25% {
        transform: translateY(0%);
      }
    }
  </style>
  <path class="aspit-dot red-fill" d="M91.33,17.11a6.3,6.3,0,1,1-6.3-6.3,6.31,6.31,0,0,1,6.3,6.3h0" />
  <path class="aspit-r2 white-fill" d="M135.64,87.87h-.56c-.19-.56-.33-.93-.41-1.11a.84.84,0,0,0-.37-.44,1.32,1.32,0,0,0-.59-.08h-.44c0,.63,0,1.17,0,1.63h-.54c0-.6,0-1.27,0-2s0-1.29,0-1.8H134c.85,0,1.28.29,1.28.88a1,1,0,0,1-.72,1v0a.92.92,0,0,1,.52.45,13.84,13.84,0,0,1,.59,1.43m-.89-2.74c0-.47-.32-.7-.94-.7a5.46,5.46,0,0,0-.57,0c0,.34,0,.8,0,1.38h.34c.76,0,1.15-.24,1.15-.73" />
  <path class="aspit-r2 white-fill" d="M133.9,89.72a3.6,3.6,0,0,1-2.53-1,3.59,3.59,0,1,1,6.13-2.54h0a3.6,3.6,0,0,1-3.59,3.59Zm0-6.79a3.2,3.2,0,0,0-3.2,3.2,3.21,3.21,0,0,0,3.19,3.2h0a3.15,3.15,0,0,0,2.26-.94,3.19,3.19,0,0,0,.94-2.26h0A3.2,3.2,0,0,0,133.91,82.93Z" />
  <path class="aspit-a white-fill" d="M61.54,89.57h-5l-2-5.21H45.33l-1.91,5.21H38.5l9-23h4.92ZM53,80.47,49.86,72l-3.11,8.52Z" />
  <path class="aspit-s white-fill" d="M63.88,84.79l4.42-.67q.57,2.61,3.57,2.61c2.1,0,3.15-.59,3.15-1.79,0-.66-.6-1.13-1.8-1.4-4.07-.89-6.54-1.78-7.41-2.65a4.41,4.41,0,0,1-1.3-3.22q0-5.1,7-5.1,6.1,0,7.35,4.4l-4.15.77c-.35-1.33-1.39-2-3.12-2-2,0-3,.45-3,1.36,0,.75,1.57,1.46,4.7,2.15a11.69,11.69,0,0,1,4.79,1.87,4,4,0,0,1,1.36,3.23,4.62,4.62,0,0,1-2.22,4.16,9.76,9.76,0,0,1-5.34,1.42q-6.67,0-8-5.14" />
  <path class="aspit-p white-fill" d="M84.66,72.93h4.1v2.48a5.79,5.79,0,0,1,5.18-2.84,6,6,0,0,1,5.13,2.52,10,10,0,0,1,1.81,6A10.32,10.32,0,0,1,99,87.43a6.07,6.07,0,0,1-5.09,2.5,6.61,6.61,0,0,1-4.87-2.45V95.9H84.66ZM89,81c0,3.64,1.27,5.45,3.83,5.45q3.54,0,3.54-5.23c0-3.42-1.21-5.14-3.64-5.14S89,77.69,89,81" />
  <path class="aspit-i white-fill" d="M105.74,66.59h4.65v23h-4.65Z" />
  <path class="aspit-t white-fill" d="M121.45,89.57V70.48h-6.82V66.59h18.25v3.89h-6.8V89.56Z" />
  <path class="aspit-circle white-fill" d="M85.16,130.61c30.46-.82,57.94-25.59,57.94-56.41,0-26.09-18.39-46.4-42.84-54a1.79,1.79,0,0,1-1.48-2c0-.06,0-.12,0-.18.36-1.61,2.15-1.32,2.15-1.32a72.16,72.16,0,1,1-31.94,0s1.79-.29,2.15,1.32a1.79,1.79,0,0,1-1.27,2.19,1.13,1.13,0,0,1-.18,0C45.29,27.81,26.9,48.11,26.9,74.2c0,30.82,27.49,55.59,57.94,56.41Z" />
</svg>
